<?xml version="1.0" encoding="utf-8"?>
<!-- Generator: Adobe Illustrator 23.0.3, SVG Export Plug-In . SVG Version: 6.00 Build 0)  -->
<svg version="1.1" id="Слой_1" xmlns="http://www.w3.org/2000/svg" xmlns:xlink="http://www.w3.org/1999/xlink" x="0px" y="0px"
	 viewBox="0 0 2349.22 1155.56" style="enable-background:new 0 0 2349.22 1155.56;" xml:space="preserve">
<style type="text/css">
	.st0{fill:#DDE8FD;}
	.st1{fill:#BED2FA;}
	.st2{fill:#6D89CF;}
	.st3{fill:#FFFFFF;}
	.st4{fill:#EF7674;}
	.st5{fill:#93A8DB;}
	.st6{fill:#3662C1;}
	.st7{fill:#CEDDFB;}
	.st8{opacity:0.5;}
	.st9{fill:#232065;}
	.st10{opacity:0.3;fill:#232065;}
	.st11{fill:#120E59;}
	.st12{fill:#4250CF;}
	.st13{fill:#9E332E;}
	.st14{fill:#93B3F4;}
	.st15{fill:#FB8D85;}
	.st16{fill:#1C1860;}
	.st17{fill:#FDB2B0;}
	.st18{fill:#EFA2A2;}
	.st19{fill:#E75755;}
	.st20{fill:#ED6966;}
	.st21{fill:#3A49CD;}
	.st22{fill:#0B0754;}
	.st23{fill:#3C4BCD;}
	.st24{fill:#AB4E49;}
	.st25{fill:#FC9290;}
	.st26{fill:#A83F3F;}
	.st27{fill:#A6433F;}
	.st28{fill:#EA8888;}
	.st29{fill:#587DCC;}
	.st30{fill:#EE9F9F;}
	.st31{fill:#879ED8;}
	.st32{fill:#FA7269;}
</style>
<path class="st0" d="M2312.94,840.59c-1.47,73.91-17.9,146.5-43.72,215.55c-3.73,9.79-24.37,72.36-33.76,72.36
	c-14.67,0-29.35,0.01-44.02,0.01c-162.79,0.03-325.57,0.05-488.35,0.08c-320.78,0.04-641.57,0.09-962.35,0.13
	c-189.97,0.02-379.94,0.15-569.91,0.04c-12.46-0.01-22.84-16.1-29.99-24.6c-13.17-15.65-22.33-33.45-27.89-52.32
	c-7.58-25.71-12.31-63.73,1.76-112.1c7.6-26.11,23.88-52.44,36.21-72.22c26.46-42.45,60.9-78.92,98.93-111.17
	c43.72-37.07,99.96-71.21,121.5-127.11c31.84-82.67-22.8-163.78-15.34-247.08C368.41,243.27,506.4,139.48,627.62,92.62
	c93.93-36.3,198.03-45.09,297.96-41.91c48.9,1.56,97.72,6.38,145.95,14.58c44.05,7.49,95.94,15.15,136.33,35.35
	c86.65,32.06,161.66,84.19,225.22,150.83c30.88,32.37,58.27,68.72,91.98,98.28c40.22,35.27,81.38,34,131.46,24.29
	c95.28-18.69,188.38-39.06,284.95-15.57c93.53,22.75,173.94,79.57,240.33,147.64C2269.58,596.15,2315.35,714.99,2312.94,840.59
	C2312.84,845.39,2313.51,810.8,2312.94,840.59z"/>
<path class="st0" d="M525.88,822.44c0,0-72.98-18.08-101.65,27.23c-28.67,45.31-86.01,47.06-116.11,83.46
	c-30.1,36.39-53.04,101.96,15.77,134.4c68.81,32.44,239.95-15.17,239.95-15.17l32.71-211.1L525.88,822.44z"/>
<path class="st1" d="M634.36,618.32c0,0-9.77-60.23-61.38-84.78c-30.98-14.73-124.02-25.7-121.16,40.24
	c2.28,52.39-50.17,45.98-29.63,106.93c17.69,52.48,77.85,32.13,77.85,32.13L634.36,618.32z"/>
<path class="st1" d="M2211.27,971.36c-68.59-54.78-168.2,11.47-187.32-63.08c-19.11-74.54-109.4-80.17-109.4-80.17l-92.2,300.45
	c123.02-0.02,246.05-0.04,369.07-0.06c14.67,0,29.35,0,44.02-0.01c9.4,0,30.03-62.57,33.76-72.36c0.33-0.88,0.65-1.76,0.98-2.65
	C2261.79,1030.03,2243.1,996.79,2211.27,971.36z"/>
<rect x="1305.7" y="379.41" class="st2" width="608.85" height="749.92"/>
<rect x="1366.43" y="416.08" class="st0" width="548.13" height="81.69"/>
<rect x="915.08" y="550.6" class="st3" width="687.63" height="581.3"/>
<rect x="898.08" y="529.48" class="st3" width="715.39" height="21.12"/>
<rect x="1293.42" y="368.85" class="st3" width="632.43" height="21.12"/>
<rect x="915.08" y="603.15" class="st4" width="444.9" height="108.05"/>
<rect x="500.05" y="619.47" class="st5" width="415.03" height="230.2"/>
<rect x="500.05" y="897.56" class="st5" width="415.03" height="230.2"/>
<rect x="557.57" y="849.66" class="st6" width="357.51" height="47.9"/>
<g>
	<g>
		<g>
			<path class="st3" d="M975.6,695.98c-10.4,0-20.18-4.05-27.54-11.41c-7.35-7.35-11.41-17.13-11.41-27.53
				c0-10.4,4.05-20.18,11.41-27.54c7.36-7.35,17.13-11.4,27.54-11.4c10.4,0,20.18,4.05,27.54,11.4
				c7.36,7.36,11.41,17.13,11.41,27.54c0,10.4-4.05,20.18-11.41,27.53C995.78,691.92,986,695.98,975.6,695.98z M975.6,621.68
				c-9.44,0-18.32,3.68-25,10.36c-6.68,6.68-10.36,15.56-10.36,25c0,9.44,3.68,18.32,10.36,25c6.68,6.68,15.56,10.36,25,10.36
				c9.44,0,18.32-3.68,25-10.36c6.68-6.68,10.36-15.56,10.36-25c0-9.44-3.68-18.32-10.36-25
				C993.92,625.36,985.05,621.68,975.6,621.68z"/>
		</g>
		<polygon class="st3" points="1000.75,650.68 981.95,650.68 981.95,631.88 969.25,631.88 969.25,650.68 950.45,650.68 
			950.45,663.39 969.25,663.39 969.25,682.19 981.95,682.19 981.95,663.39 1000.75,663.39 		"/>
	</g>
</g>
<g>
	<path class="st3" d="M1045.43,638.38h8.27v14.87h15.25v-14.87h8.27v37.58h-8.27v-15.08h-15.25v15.08h-8.27V638.38z"/>
	<path class="st3" d="M1084.57,657.17c0-10.68,8.43-19.43,20.03-19.43s19.92,8.64,19.92,19.43c0,10.68-8.43,19.44-20.03,19.44
		C1092.89,676.6,1084.57,667.96,1084.57,657.17z M1115.87,657.17c0-6.44-4.72-11.81-11.38-11.81c-6.66,0-11.27,5.26-11.27,11.81
		c0,6.44,4.72,11.81,11.38,11.81S1115.87,663.72,1115.87,657.17z"/>
	<path class="st3" d="M1129.02,670.48l4.89-5.85c3.38,2.79,6.92,4.56,11.22,4.56c3.38,0,5.42-1.34,5.42-3.65
		c0-2.09-1.29-3.17-7.57-4.78c-7.57-1.93-12.46-4.03-12.46-11.6c0-6.82,5.48-11.33,13.15-11.33c5.48,0,10.15,1.72,13.96,4.78
		l-4.29,6.23c-3.33-2.31-6.6-3.7-9.77-3.7c-3.17,0-4.83,1.45-4.83,3.38c0,2.47,1.61,3.27,8.11,4.94
		c7.62,1.99,11.92,4.72,11.92,11.38c0,7.46-5.69,11.65-13.8,11.65C1139.28,676.5,1133.53,674.51,1129.02,670.48z"/>
	<path class="st3" d="M1165.96,638.38h15.35c8.97,0,14.39,5.31,14.39,13.1c0,8.7-6.76,13.21-15.19,13.21h-6.28v11.27h-8.27V638.38z
		 M1180.78,657.33c4.13,0,6.55-2.47,6.55-5.8c0-3.7-2.58-5.69-6.71-5.69h-6.39v11.49H1180.78z"/>
	<path class="st3" d="M1202.2,638.38h8.27v37.58h-8.27V638.38z"/>
	<path class="st3" d="M1228.61,646h-11.44v-7.62h31.14V646h-11.44v29.96h-8.27V646z"/>
	<path class="st3" d="M1262.71,638.11h7.62l16.11,37.85h-8.64l-3.44-8.43h-15.89l-3.44,8.43h-8.43L1262.71,638.11z M1271.41,660.23
		l-4.99-12.19l-4.99,12.19H1271.41z"/>
	<path class="st3" d="M1292.24,638.38h8.27v30.06h18.74v7.52h-27V638.38z"/>
</g>
<rect x="1637.26" y="853.91" class="st5" width="277.29" height="183"/>
<rect x="1637.26" y="584.46" class="st5" width="277.29" height="183"/>
<rect x="1372.2" y="420.43" class="st5" width="542.36" height="72.1"/>
<polygon class="st0" points="915.08,557.85 1602.71,578.59 1602.71,550.6 915.08,550.6 "/>
<rect x="474.08" y="618.09" class="st3" width="441" height="22.79"/>
<path class="st1" d="M473.44,1033.67c-53.83,12.23-68.19,55.94-102.28,29.71c-34.09-26.22-77.15-8.73-100.47-7.6
	c-23.33,1.14-19.74-53.59-69.99-71.07c-24.18-8.41-64.62-9.9-93.54-8.64c-3.81,31.36,0.21,56.87,5.77,75.74
	c5.56,18.87,14.72,36.67,27.89,52.32c6.1,7.25,14.55,20.02,24.63,23.62h394.11C579.3,1080.24,527.26,1021.43,473.44,1033.67z"/>
<path class="st3" d="M329.97,291.36c0,0,36.46-42.8,123.65-38.05c0,0,126.58-71.34,261.57-9.51c0,0,143.49-15.32,249.75,13.26
	c70.85,19.06,94.25,39.05,94.25,39.05L329.97,291.36z"/>
<path class="st3" d="M1115.8,238.86c0-15.52,12.58-28.09,28.09-28.09s28.09,12.58,28.09,28.09c0,15.51-12.58,28.09-28.09,28.09
	S1115.8,254.37,1115.8,238.86z"/>
<path class="st3" d="M750.74,416.84c0,0,19.97-23.44,67.73-20.84c0,0,69.33-39.07,143.27-5.21c0,0,78.59-8.39,136.79,7.27
	c38.81,10.44,51.62,21.39,51.62,21.39L750.74,416.84z"/>
<g>
	<rect x="1022.09" y="873.5" class="st2" width="483.18" height="252.41"/>
	<rect x="1038.33" y="891.15" class="st3" width="452.94" height="235.61"/>
	<rect x="1055.48" y="906.05" class="st5" width="419.56" height="54.14"/>
	<rect x="1055.48" y="974.89" class="st5" width="122.69" height="150.85"/>
	<rect x="1189.84" y="974.89" class="st5" width="150.84" height="150.85"/>
	<rect x="1351.06" y="974.89" class="st5" width="123.99" height="150.85"/>
	<polygon class="st7" points="1239.27,974.89 1340.68,974.89 1340.68,1030.72 1322.61,1125.74 1210.57,1125.74 	"/>
	<g>
		<g>
			<rect x="1209.62" y="1003.6" class="st3" width="112.84" height="122.31"/>
			<rect x="1215" y="1009.13" class="st2" width="102.09" height="116.79"/>
			<rect x="1264.14" y="1009.13" class="st3" width="3.8" height="116.79"/>
		</g>
		<g>
			<path class="st3" d="M1255.04,1067.52c0-1.33,1.08-2.41,2.41-2.41c1.33,0,2.41,1.08,2.41,2.41c0,1.33-1.08,2.41-2.41,2.41
				C1256.12,1069.93,1255.04,1068.85,1255.04,1067.52z"/>
			<path class="st3" d="M1272.22,1067.52c0-1.33,1.08-2.41,2.41-2.41c1.33,0,2.41,1.08,2.41,2.41c0,1.33-1.08,2.41-2.41,2.41
				C1273.3,1069.93,1272.22,1068.85,1272.22,1067.52z"/>
		</g>
	</g>
	<polygon class="st7" points="1094.51,974.89 1156.63,974.89 1136.8,1125.74 1074.68,1125.74 	"/>
	<polygon class="st7" points="1165.67,906.05 1158.56,960.19 1096.44,960.19 1103.56,906.05 	"/>
	<polygon class="st7" points="1380.4,974.89 1442.52,974.89 1422.69,1125.74 1360.57,1125.74 	"/>
	<polygon class="st7" points="1451.57,906.05 1444.45,960.19 1382.33,960.19 1389.45,906.05 	"/>
	<polygon class="st7" points="1364.4,906.05 1354.1,960.19 1242.06,960.19 1252.36,906.05 	"/>
</g>
<polygon class="st7" points="1351.16,986.01 1351.38,986.01 1351.16,987.21 "/>
<path class="st1" d="M988.07,1125.81c0,0-2.98-26.39,23.78-33.08c26.76-6.69,37.26-30.58,68.33-10.51
	c31.07,20.07,21.23,43.6,21.23,43.6H988.07z"/>
<polygon class="st1" points="1766.87,767.46 1675.12,767.46 1715.26,584.46 1807.01,584.46 "/>
<polygon class="st7" points="1848.16,1036.91 1756.41,1036.91 1796.55,853.91 1888.3,853.91 "/>
<polygon class="st7" points="1717.68,853.91 1677.54,1036.91 1637.26,1036.91 1637.26,853.91 "/>
<polygon class="st7" points="1914.55,584.46 1914.55,767.46 1813.7,767.46 1858.49,584.46 "/>
<rect x="1505" y="420.43" class="st0" width="7.65" height="72.1"/>
<rect x="1659.35" y="420.43" class="st0" width="7.65" height="72.1"/>
<rect x="1809.87" y="420.43" class="st0" width="7.65" height="72.1"/>
<g class="st8">
	<g>
		<rect x="548.67" y="702.09" class="st2" width="45.98" height="72.57"/>
		<g>
			<g>
				<path class="st3" d="M596.55,777H545.9v-77.25h50.65V777z M550.57,772.32h41.3v-67.9h-41.3V772.32z"/>
			</g>
			<rect x="549.99" y="726.36" class="st3" width="42.47" height="3.51"/>
			<rect x="549.99" y="750.51" class="st3" width="42.47" height="3.51"/>
			
				<rect x="534.77" y="736.45" transform="matrix(-1.836970e-16 1 -1 -1.836970e-16 1309.4255 166.9808)" class="st3" width="72.91" height="3.51"/>
		</g>
	</g>
	<g>
		<rect x="681.43" y="702.09" class="st2" width="45.98" height="72.57"/>
		<g>
			<g>
				<path class="st3" d="M729.3,777h-50.65v-77.25h50.65V777z M683.33,772.32h41.3v-67.9h-41.3V772.32z"/>
			</g>
			<rect x="682.74" y="726.36" class="st3" width="42.47" height="3.51"/>
			<rect x="682.74" y="750.51" class="st3" width="42.47" height="3.51"/>
			
				<rect x="667.52" y="736.45" transform="matrix(-1.836970e-16 1 -1 -1.836970e-16 1442.1819 34.2244)" class="st3" width="72.91" height="3.51"/>
		</g>
	</g>
	<g>
		<rect x="814.18" y="702.09" class="st2" width="45.98" height="72.57"/>
		<g>
			<g>
				<path class="st3" d="M862.06,777h-50.65v-77.25h50.65V777z M816.08,772.32h41.3v-67.9h-41.3V772.32z"/>
			</g>
			<rect x="815.5" y="726.36" class="st3" width="42.47" height="3.51"/>
			<rect x="815.5" y="750.51" class="st3" width="42.47" height="3.51"/>
			
				<rect x="800.28" y="736.45" transform="matrix(-1.836970e-16 1 -1 -1.836970e-16 1574.9377 -98.5314)" class="st3" width="72.91" height="3.51"/>
		</g>
	</g>
</g>
<g class="st8">
	<g>
		<rect x="548.67" y="950.93" class="st2" width="45.98" height="72.57"/>
		<g>
			<g>
				<path class="st3" d="M596.55,1025.84H545.9v-77.25h50.65V1025.84z M550.57,1021.16h41.3v-67.9h-41.3V1021.16z"/>
			</g>
			<rect x="549.99" y="975.2" class="st3" width="42.47" height="3.51"/>
			<rect x="549.99" y="999.35" class="st3" width="42.47" height="3.51"/>
			
				<rect x="534.77" y="985.29" transform="matrix(-1.836970e-16 1 -1 -1.836970e-16 1558.2629 415.8182)" class="st3" width="72.91" height="3.51"/>
		</g>
	</g>
	<g>
		<rect x="681.43" y="950.93" class="st2" width="45.98" height="72.57"/>
		<g>
			<g>
				<path class="st3" d="M729.3,1025.84h-50.65v-77.25h50.65V1025.84z M683.33,1021.16h41.3v-67.9h-41.3V1021.16z"/>
			</g>
			<rect x="682.74" y="975.2" class="st3" width="42.47" height="3.51"/>
			<rect x="682.74" y="999.35" class="st3" width="42.47" height="3.51"/>
			
				<rect x="667.52" y="985.29" transform="matrix(-1.836970e-16 1 -1 -1.836970e-16 1691.0193 283.0618)" class="st3" width="72.91" height="3.51"/>
		</g>
	</g>
	<g>
		<rect x="814.18" y="950.93" class="st2" width="45.98" height="72.57"/>
		<g>
			<g>
				<path class="st3" d="M862.06,1025.84h-50.65v-77.25h50.65V1025.84z M816.08,1021.16h41.3v-67.9h-41.3V1021.16z"/>
			</g>
			<rect x="815.5" y="975.2" class="st3" width="42.47" height="3.51"/>
			<rect x="815.5" y="999.35" class="st3" width="42.47" height="3.51"/>
			
				<rect x="800.28" y="985.29" transform="matrix(-1.836970e-16 1 -1 -1.836970e-16 1823.7751 150.306)" class="st3" width="72.91" height="3.51"/>
		</g>
	</g>
</g>
<rect x="904.4" y="797.15" class="st0" width="718.58" height="25.29"/>
<path class="st1" d="M667.99,618.09c0,0,12.42-40.43,43.01-39.5c30.58,0.93,40.14,29.07,50.65,24.56
	c10.51-4.51,41.1-1.91,43.01,14.95H667.99z"/>
<g>
	<g>
		<path class="st9" d="M2124.51,986.57v17.13c0,1.52-0.36,2.99-1.01,4.28c-1.57,3.15-4.85,5.31-8.59,5.31h-3.07
			c-5.26,0-9.6-4.31-9.6-9.6v-17.13c0-1.81,0.52-3.48,1.39-4.93c0-0.03,0-0.03,0-0.03c1.7-2.79,4.75-4.64,8.2-4.64h3.07
			C2120.2,976.98,2124.51,981.31,2124.51,986.57z"/>
		<path class="st10" d="M2123.5,1007.99c-1.57,3.15-4.85,5.31-8.59,5.31h-3.07c-5.26,0-9.6-4.31-9.6-9.6v-17.13
			c0-1.81,0.52-3.48,1.39-4.93C2103.81,982.7,2107.89,1006.21,2123.5,1007.99z"/>
	</g>
	<polygon class="st11" points="1972.35,1111.96 2019.79,1111.96 2019.79,1064.08 1970.3,1064.08 	"/>
	<path class="st3" d="M2121.95,1010.75l-233.08,5.75V893.58h153.06c14.59,0,27.95,8.17,34.61,21.15l10.02,19.55L2121.95,1010.75z"/>
	<path class="st9" d="M1989.53,1104.17c0,13,6.71,27.34,6.71,27.34s9.96,0,11.35,0c9.97,0,18.05-12.24,18.05-27.34
		c0-15.1-19.43-27.33-29.41-27.33C1986.27,1076.84,1989.53,1089.08,1989.53,1104.17z"/>
	<path class="st12" d="M1978.18,1104.17c0,15.1,8.08,27.34,18.06,27.34c9.97,0,18.05-12.24,18.05-27.34
		c0-15.1-8.08-27.33-18.05-27.33C1986.27,1076.84,1978.18,1089.08,1978.18,1104.17z"/>
	<path class="st5" d="M1982.87,1104.17c0,11.37,6.09,20.59,13.6,20.59c7.51,0,13.6-9.22,13.6-20.59c0-11.37-6.09-20.59-13.6-20.59
		C1988.95,1083.58,1982.87,1092.8,1982.87,1104.17z"/>
	<path class="st9" d="M2120.04,1104.17c0,13,6.71,27.34,6.71,27.34s9.96,0,11.35,0c9.97,0,18.05-12.24,18.05-27.34
		c0-15.1-19.43-27.33-29.41-27.33C2116.77,1076.84,2120.04,1089.08,2120.04,1104.17z"/>
	<path class="st12" d="M2108.69,1104.17c0,15.1,8.08,27.34,18.06,27.34c9.97,0,18.05-12.24,18.05-27.34
		c0-15.1-8.08-27.33-18.05-27.33C2116.77,1076.84,2108.69,1089.08,2108.69,1104.17z"/>
	<path class="st9" d="M1820.34,1104.17c0,13,6.7,27.34,6.7,27.34s9.97,0,11.35,0c9.97,0,18.05-12.24,18.05-27.34
		c0-15.1-19.43-27.33-29.41-27.33C1817.08,1076.84,1820.34,1089.08,1820.34,1104.17z"/>
	<path class="st12" d="M1808.99,1104.17c0,15.1,8.08,27.34,18.05,27.34c9.97,0,18.06-12.24,18.06-27.34
		c0-15.1-8.08-27.33-18.06-27.33C1817.08,1076.84,1808.99,1089.08,1808.99,1104.17z"/>
	<path class="st3" d="M2174.13,1091.27c0.03,11.43-9.24,20.69-20.64,20.69h-133.7c0.39-2.24,0.59-4.57,0.59-6.97
		c0-17.67-10.6-32.02-23.66-32.02c-13.08,0-23.68,14.34-23.68,32.02c0,2.4,0.18,4.72,0.57,6.97h-78.12c0,0-3.15-34.88-2.76-52.38
		c0.31-15.22,0.31-45.05-0.59-52.32c0-1.08,75.34-1.21,94.35-1.29c2.58-0.03,4.13-0.03,4.28-0.03l0.26,0.18l0.28,0.21
		c3.51,2.45,23.17,16.23,35.37,24.3c10.76,7.1,90.17,9.99,121.31,10.86c7.74,0.21,12.51,0.28,12.51,0.28s4.26,4.36,8.02,11.25
		c2.89,5.34,5.47,12.2,5.52,19.71c0.03,4.67,0.05,10.29,0.05,15.81C2174.13,1089.47,2174.13,1090.37,2174.13,1091.27z"/>
	<path class="st2" d="M2103.15,1005.95H1998.4c-2.42,0-4.62-1.42-5.62-3.61l-25.93-57.69c-0.85-1.88,0.54-4.02,2.61-4.02h110.5
		c2.42,0,4.64,1.44,5.62,3.69l18.58,42.44l4.64,10.6C2110.56,1001.41,2107.59,1005.95,2103.15,1005.95z"/>
	<path class="st0" d="M2054.36,1088.56c-0.02,1.81-0.1,3.52-0.2,5.03c-0.75,10.04-10.84,18.37-10.84,18.37h-23.54
		c0.39-2.25,0.6-4.57,0.6-6.97c0-6.01-1.24-11.63-3.35-16.43c-4.16-9.33-11.69-15.58-20.3-15.58c-8.65,0-16.18,6.25-20.34,15.58
		c-2.11,4.8-3.35,10.43-3.35,16.43c0,2.4,0.19,4.72,0.58,6.97h-84.76V893.59h68.04l0.32,40.69c0,0,1.15,6.1,3.47,11.55
		c2.08,4.87,4.84,11.35,7.85,18.4c6.19,14.47,13.43,31.34,17.95,41.74c2.27,5.26,3.87,8.85,4.28,9.62
		c1.27,2.42,20.15,12.65,36.11,21.73c3.98,2.27,7.79,4.46,11.08,6.44c4.7,2.83,8.37,5.22,10.11,6.79
		C2052.42,1054.48,2054.59,1074.87,2054.36,1088.56z"/>
	<polygon class="st3" points="2160.5,1041.79 2036.35,1041.79 1991.02,1006.13 1990.77,1005.95 2116,1005.95 2151.66,1034.64 	"/>
	<path class="st13" d="M2052.43,1062.74l-11.22-1.11c-3.92-0.39-7.1-3.33-7.79-7.2l-2.58-14.19c-0.05-0.23-0.08-0.44-0.05-0.67
		c8,4.59,14.73,8.7,17.29,10.99C2049.93,1052.24,2051.4,1056.88,2052.43,1062.74z"/>
	<path class="st3" d="M2086.55,934.28h-129.34c0,0-0.5-8.28-3.74-17.73c-2.89-8.35-7.88-17.66-16.62-22.97h105.69
		c17.23,0,32.5,9.2,38.56,22.97c0.29,0.57,0.54,1.14,0.75,1.71C2083.66,923.05,2085.3,928.4,2086.55,934.28z"/>
	<path class="st14" d="M2052.45,1062.74l-11.25-1.11c-3.92-0.39-7.1-3.33-7.79-7.2l-2.58-14.19c-0.05-0.23-0.08-0.46-0.05-0.7
		c8,4.62,14.73,8.72,17.29,11.02C2049.93,1052.24,2051.4,1056.88,2052.45,1062.74z"/>
	<path class="st9" d="M2174.13,1091.27c0.03,11.43-9.67,20.69-21.65,20.69h-132.69c0.39-2.24,0.59-4.57,0.59-6.97
		c0-6.01-1.24-11.64-3.35-16.43h157.07C2174.13,1089.47,2174.13,1090.37,2174.13,1091.27z"/>
	<path class="st9" d="M1973.04,1105c0,2.4,0.18,4.72,0.57,6.97h-84.75v-23.4h87.54C1974.28,1093.36,1973.04,1098.99,1973.04,1105z"
		/>
	<path class="st9" d="M2086.72,1042.8h50.77c1.62,0,2.86,2.19,2.61,4.61l-1.8,17.64c-0.27,2.6-1.74,4.51-3.48,4.51H2093
		c-2.68,0-5.05-2.65-5.83-6.54l-3.01-15C2083.63,1045.42,2084.92,1042.8,2086.72,1042.8z"/>
	<path class="st5" d="M2104.16,986.75c-59.88-3.07-100.39-35.11-112.62-46.13h88.42c2.42,0,4.64,1.44,5.62,3.69L2104.16,986.75z"/>
	<rect x="1686.3" y="893.58" class="st3" width="226.51" height="218.4"/>
	<path class="st0" d="M2086.55,934.28h-129.34c0,0-0.5-8.28-3.74-17.73h127.63c0.29,0.57,0.54,1.14,0.75,1.71
		C2083.66,923.05,2085.3,928.4,2086.55,934.28z"/>
	<path class="st9" d="M2168.53,1053.04c-0.72,1.19-1.65,1.96-2.66,2.14l-17.42,3.22c-1.47,0.28-2.61-2.27-2.22-4.9l1.7-11.71
		l0.05-0.28l0.33-2.4c0.31-2.06,1.21-3.64,2.32-4.08l1.01-0.39l8.85,7.15C2160.5,1041.79,2164.76,1046.15,2168.53,1053.04z"/>
	<rect x="1686.3" y="1037.33" class="st15" width="361.76" height="18.41"/>
	<rect x="1686.3" y="931.42" class="st15" width="226.51" height="18.4"/>
	<g>
		<path class="st15" d="M1767.31,993.17c0-17.81,14.43-32.24,32.24-32.24c17.81,0,32.24,14.43,32.24,32.24
			c0,17.81-14.44,32.24-32.24,32.24C1781.75,1025.41,1767.31,1010.97,1767.31,993.17z"/>
		<g>
			<g>
				<g>
					<path class="st3" d="M1799.55,1021.71c-7.63,0-14.79-2.97-20.18-8.36c-5.39-5.39-8.36-12.56-8.36-20.18s2.97-14.79,8.36-20.19
						c5.39-5.39,12.56-8.36,20.18-8.36s14.79,2.97,20.18,8.36c5.39,5.39,8.36,12.56,8.36,20.19s-2.97,14.79-8.36,20.18
						C1814.35,1018.74,1807.18,1021.71,1799.55,1021.71z M1799.55,967.25c-6.92,0-13.43,2.7-18.33,7.59
						c-4.9,4.89-7.59,11.4-7.59,18.33c0,6.92,2.7,13.43,7.59,18.33c4.89,4.9,11.4,7.59,18.33,7.59s13.43-2.7,18.33-7.59
						c4.89-4.9,7.59-11.4,7.59-18.33c0-6.92-2.7-13.43-7.59-18.33C1812.98,969.95,1806.48,967.25,1799.55,967.25z"/>
				</g>
				<polygon class="st3" points="1817.99,988.51 1804.21,988.51 1804.21,974.73 1794.9,974.73 1794.9,988.51 1781.12,988.51 
					1781.12,997.82 1794.9,997.82 1794.9,1011.61 1804.21,1011.61 1804.21,997.82 1817.99,997.82 				"/>
			</g>
		</g>
	</g>
	<path class="st9" d="M2073.74,1064.85l-21.29-2.12h-0.03l-11.22-1.11c-3.92-0.39-7.1-3.33-7.79-7.2l-2.58-14.19
		c-0.05-0.23-0.08-0.44-0.05-0.67v-0.03c-0.13-2.99,2.61-5.42,5.68-4.8l33.15,6.73c2.12,0.44,3.79,2.01,4.36,4.08l3.9,14.4
		C2078.59,1062.58,2076.45,1065.14,2073.74,1064.85z"/>
	<path class="st2" d="M1957.65,951l22.31,54.96h-38.29c0,0-7.85-1.31-8.86-17.36c-1.08-17.13-1.07-46.7-1.07-46.7l16.8-0.08
		C1954.95,942.78,1955.96,946.3,1957.65,951z"/>
	<path class="st9" d="M1968.61,977.74c0,0,1.94,22.21-9.03,28.29h20.48L1968.61,977.74z"/>
	<path class="st9" d="M1971.62,992.61c0,0-4.63-3.29-5.02-6.02v15.53h6.05L1971.62,992.61z"/>
	<path class="st9" d="M1966.59,986.57v17.13c0,1.52-0.36,2.99-1.01,4.28c-1.57,3.15-4.85,5.31-8.59,5.31h-3.07
		c-5.26,0-9.6-4.31-9.6-9.6v-17.13c0-1.81,0.52-3.48,1.39-4.93c0-0.03,0-0.03,0-0.03c1.7-2.79,4.75-4.64,8.2-4.64h3.07
		C1962.28,976.98,1966.59,981.31,1966.59,986.57z"/>
	<path class="st9" d="M1913.03,1105c0,2.4,0.33,4.72,1.04,6.97h-155.96v-23.4h161.08C1915.31,1093.36,1913.03,1098.99,1913.03,1105z
		"/>
	<path class="st9" d="M1841.21,1105c0,2.4,0.33,4.72,1.04,6.97H1686.3v-23.4h161.08C1843.49,1093.36,1841.21,1098.99,1841.21,1105z"
		/>
	<path class="st11" d="M1760.28,1111.98h-55.72c-1.18-5.03-4.72-40.84,26.5-40.84C1759.45,1071.14,1761.53,1103.81,1760.28,1111.98z
		"/>
	<g>
		<path class="st9" d="M1722.01,1104.17c0,13,6.71,27.34,6.71,27.34s9.97,0,11.35,0c9.97,0,18.05-12.24,18.05-27.34
			c0-15.1-19.43-27.33-29.41-27.33S1722.01,1089.08,1722.01,1104.17z"/>
		<path class="st12" d="M1710.66,1104.17c0,15.1,8.08,27.34,18.05,27.34s18.06-12.24,18.06-27.34c0-15.1-8.08-27.33-18.06-27.33
			S1710.66,1089.08,1710.66,1104.17z"/>
		<path class="st5" d="M1715.34,1104.17c0,11.37,6.09,20.59,13.6,20.59c7.51,0,13.6-9.22,13.6-20.59c0-11.37-6.09-20.59-13.6-20.59
			C1721.43,1083.58,1715.34,1092.8,1715.34,1104.17z"/>
	</g>
</g>
<g>
	<path class="st16" d="M1356.51,879.71c-1.15-2.23,25.18-10.24,25.6,11.73c0,0,49.34-1.21,25.78-28.71
		c-8.16-9.52-7.32-17.39-7.07-24.72c0.25-7.33-5.08-28.62-23.34-26.48c0,0-4.78-1.95-10.75,1.15
		C1353.16,819.72,1322.75,887.81,1356.51,879.71z"/>
	<path class="st17" d="M1437.17,904.27c0,0,3.21-4.89,5.8-4.98c2.59-0.1,7.38-1.44,7-0.48c-0.38,0.96-3.35,1.05-3.64,1.63
		c-0.29,0.58,4.41,1.44,5.75,1.53c1.34,0.1,4.51,0,4.41,0.67c-0.1,0.67-5.7,3.45-9.66,3.07c-3.96-0.38-8.84,1.15-8.84,1.15
		L1437.17,904.27z"/>
	<path class="st16" d="M1390.73,905.85c0,0,1.75,3.46,4.91,7.43c3.82,4.78,9.7,10.3,17.09,11.39c3.53,0.52,6.98-0.24,10.15-1.65
		c0.01,0,0.01,0,0.01,0c8.97-3.98,15.72-13.14,15.72-13.14c1.58-4.31-1.01-7.24-1.01-7.24s-18.12,4.08-19.84,3.21
		c-1.73-0.86-11.79-29.86-14.19-33.5c-2.4-3.64-10.57-5.54-10.57-5.54L1390.73,905.85z"/>
	<path class="st9" d="M1323.13,1101.42c0,0-5.53,5.04-4.45,8.63c1.08,3.58,6.07,5.97,6.74,10.36c0.67,4.38,3.37,6.77,5.8,6.77
		c2.43,0,11.57,0,11.57,0s1.79-3.08-2.53-4.01c-4.31-0.93-5.94-6.08-5.67-10.86c0.27-4.78-0.4-11.15-0.4-11.15l-9.17-2.13
		L1323.13,1101.42z"/>
	<path class="st9" d="M1369.92,1103.56c0,0-1.99,21.37,0.44,22.57l31.06-0.06c0,0,0-3.59-4.99-4.38
		c-4.99-0.8-13.75-3.72-15.24-10.22C1379.72,1104.96,1369.92,1103.56,1369.92,1103.56z"/>
	<path class="st17" d="M1347.79,950.23c6.39-14.33,10.3-18.45,9.56-22.9c-0.56-3.31,1.69-61.74,1.69-61.74
		c0.76-0.23,2.28-0.45,3.11-0.63c2.62-0.58,4.79-2.42,5.7-4.95c1.09-3.05,1.95-7.55,1.93-13.18l0.82,0.16l13.77,2.73
		c0,0-0.31,4.33-0.32,8.41c0,0.03,0,0.07,0,0.1c-0.02,3.54,2.31,6.67,5.71,7.66c1.74,0.5,3.25,0.93,3.25,0.93s5.06,14.43,6.02,29.26
		c0.97,14.83-9.19,21.27,0.08,50.9C1408.57,977.23,1344.26,958.15,1347.79,950.23z"/>
	<path class="st18" d="M1384.36,849.71c0,0-0.31,4.33-0.32,8.41c-7.7-0.22-11.78-7.25-13.44-11.14L1384.36,849.71z"/>
	<path class="st17" d="M1386.93,853.58c0,0-18.23,0.3-18.24-11.05c-0.01-11.35-2.38-18.96,9.26-19.63
		c11.64-0.67,13.9,3.66,14.83,7.45C1393.71,834.12,1391.68,853.21,1386.93,853.58z"/>
	<path class="st16" d="M1386.26,822.61c0,0-4.99,13.32-12.65,15.29c-7.66,1.97-10.98-0.08-10.98-0.08s5.88-4.67,7.09-12.81
		C1369.72,825.01,1382.5,816.27,1386.26,822.61z"/>
	<path class="st16" d="M1385.02,823.69c0,0,3.7,1.38,5.22,4.08c1.49,2.64,2.76,6.13,2.46,10.42c0,0,3.76-9.05-0.46-14.18
		C1387.77,818.59,1385.02,823.69,1385.02,823.69z"/>
	<path class="st3" d="M1382.97,846.53c0,0,1.26,1.65,3.77,1.54c2.03-0.1,2.81-1.85,2.81-1.85S1385.83,845.32,1382.97,846.53z"/>
	<path class="st16" d="M1350.27,891.44c0,0,0.07,8.64,0.53,16.48c0.31,5.19,0.79,10.02,1.53,11.75c1.87,4.31,3.98,5.01,3.98,5.01
		l16.31,4l5.73,1.4l18.08-5.4c0,0,8.24-22.99,4.93-35.93c-3.31-12.94-8.36-21.93-8.36-21.93s-14.76,14.45-33.97-1.23L1350.27,891.44
		z"/>
	<path class="st19" d="M1395.29,928.16c0,0,8.95,27.87,9.53,37.36c0.58,9.49-17.12,134.81-17.83,139.19
		c-0.67,4.12-5.79,6.75-5.79,6.75s-2.35,1.39-5.71,0.44c-4.66-1.32-6.13-2.89-6.13-2.89s-6.97-89.38-2.66-121.31
		c4.31-31.93,4.36-59.54,4.36-59.54H1395.29z"/>
	<path class="st20" d="M1357.35,927.33c0,0-13.66,18.33-14.93,30.72c-1.27,12.39-2,55.91-4.71,67.99
		c-2.71,12.08-12.68,35.32-12.68,73c0,0,1.04,2.16,4.24,3.31c1.02,0.37,2.39,0.72,3.72,1.03c2.64,0.61,5.35-0.68,6.55-3.11
		c6.74-13.57,28.21-57.33,29.31-66.42c0.78-6.43,7.56-48.98,22.34-73.94c3.55-5.99-2.18-29.83-2.18-29.83L1357.35,927.33z"/>
	<path class="st3" d="M1383.38,846.74c0,0,0.28,1.35,3.61,1.24c0,0,2.8-0.09,2.76-1.56
		C1389.75,846.42,1387.07,845.29,1383.38,846.74z"/>
	<path class="st9" d="M1396.72,923.86c0,0-3.59,2.84-10.74,2.99c-8.53,0.17-29.67-2.18-29.67-2.18s-0.94,2.63-0.9,5.4
		c0,0,25.82,6.51,40.78,0.95C1396.19,931.02,1398.12,927.39,1396.72,923.86z"/>
	<g>
		<path class="st3" d="M1384.14,929.79c0-2.43,1.75-4.41,3.89-4.41s3.89,1.98,3.89,4.41s-1.75,4.41-3.89,4.41
			S1384.14,932.22,1384.14,929.79z M1385.43,929.79c0,1.72,1.17,3.12,2.6,3.12s2.6-1.4,2.6-3.12c0-1.72-1.17-3.12-2.6-3.12
			S1385.43,928.07,1385.43,929.79z"/>
	</g>
	
		<rect x="1325.3" y="952.73" transform="matrix(-0.9775 -0.2108 0.2108 -0.9775 2458.6558 2190.8069)" class="st16" width="41.56" height="23.29"/>
	<path class="st21" d="M1368.85,957.37c0,0-11.36,9.51-23.98,6.21c-12.62-3.31-16.65-14.96-16.65-14.96L1368.85,957.37z"/>
	<g>
		<path class="st21" d="M1360.91,955.88c0-1.24,1.01-2.26,2.26-2.26c1.25,0,2.26,1.01,2.26,2.26c0,1.24-1.01,2.26-2.26,2.26
			C1361.92,958.14,1360.91,957.12,1360.91,955.88z M1361.66,955.88c0,0.83,0.68,1.51,1.51,1.51c0.83,0,1.51-0.68,1.51-1.51
			c0-0.83-0.67-1.51-1.51-1.51C1362.33,954.37,1361.66,955.05,1361.66,955.88z"/>
	</g>
	<path class="st17" d="M1330.1,958.74c0,0-0.02,3.3-0.64,4.89c-0.63,1.59-2.5,3.71-3.13,3.71c-0.63,0,0.57-3.32,0.26-3.25
		c-0.31,0.07-1.82,5.52-2.92,5.65c-1.1,0.13-2.09-6.12-1.52-8.57c0.57-2.45,3.05-5.4,3.05-5.4L1330.1,958.74z"/>
	<path class="st16" d="M1359.04,865.59c0,0-10.08,1.37-15.51,12.06c-4.19,8.26-7.07,34.25-10.03,42.44
		c-2.83,7.83-6.74,22.97-8.92,35.1c-0.17,0.94,0.35,1.87,1.24,2.22l3.71,1.47c0.8,0.32,1.71,0.01,2.15-0.73
		c3.3-5.53,16.29-27.69,20.8-40.5c5.27-14.99,15.14-24.29,15.14-24.29L1359.04,865.59z"/>
	<g>
		<path class="st22" d="M1363.91,954.13c0.02-0.37,2.37-37.43,1.92-58.27c-0.24-10.94-1.93-18.65-3.3-23.19
			c-1.5-4.95-3.74-6.98-3.81-7.08l-0.76,0.23c0.06,0.09,6.28,9.45,6.72,30.07c0.45,20.79-1.9,57.81-1.92,58.18L1363.91,954.13z"/>
	</g>
</g>
<g>
	<g>
		<path class="st17" d="M733.21,1107.51l-5.76-1.87c0,0-1.19-15.63,1.37-34.36c1.62-11.87,4.6-24.72,9.98-35.04
			c2.44-4.67,5.37-8.82,8.9-12.13c0,0,4.42-10.26,10.27-23.97c6.51-15.25,47.22-19.71,23.99,12.22
			c-4.77,6.55-9.88,18.09-16.02,25.09c-10.48,11.98-17.88,25.96-22.96,38.27C735.72,1093.33,733.21,1107.51,733.21,1107.51z"/>
		<path class="st17" d="M720.1,1108.39c-1.75,2.83,2.02,5.6,6.69,8.21c4.66,2.61,2.73,2.87,8.69,7.31c5.96,4.44,9.48,3.95,10.39,3.3
			c0.81-0.58-1.62-3.32-4.18-6.32c-0.32-0.38-0.64-0.76-0.96-1.14c-2.86-3.42-3.28-7.71-4.62-12.17c-1.27-4.22,0.74-14.7,0.74-14.7
			l-7.96-6.32c0,0-1.62,9.53-2.51,13.5c-0.52,2.33-2.43,4.29-3.98,5.73C721.57,1106.58,720.71,1107.39,720.1,1108.39z"/>
		<path class="st23" d="M726.79,1116.6c4.66,2.61,2.73,2.87,8.69,7.31c5.96,4.44,9.48,3.95,10.39,3.3c0.81-0.58-1.62-3.32-4.18-6.32
			l-0.08,0.03c0,0-5.38-0.72-9.98-4.81c-3.75-3.33-6.65-8-9.22-10.32c-0.84,0.79-1.69,1.59-2.31,2.59
			C718.35,1111.22,722.12,1113.99,726.79,1116.6z"/>
	</g>
	<g>
		<path class="st17" d="M699.18,1117.66l-6.64,3.44c0,0-3.97-5.17-7.52-11.42c-2.48-4.37-4.76-9.28-5.32-13.3
			c-1.36-9.76-11.68-25.79-10.61-28.53c1.08-2.73,21.56-7.46,21.56-7.46s4,27.42,6.67,45.14
			C698.1,1110.72,698.76,1115.07,699.18,1117.66z"/>
		<path class="st12" d="M694.13,1079.39c-3.79,1.84-7.31,2.9-10.34,3.49c-4.5,0.88-7.89,0.73-9.39,0.59
			c-0.55-0.05-0.85-0.11-0.85-0.11s-3.69-2.66-7.96-8.84c-3.92-5.67-6.82-13.78-6.82-13.88l31.28-3.04L694.13,1079.39z"/>
		<path class="st9" d="M683.79,1082.88c-4.5,0.88-7.89,0.73-9.39,0.59l3.52-13.66C677.91,1069.8,682.46,1076.92,683.79,1082.88z"/>
		<path class="st3" d="M699.18,1117.66l-6.64,3.44c0,0-3.97-5.17-7.52-11.42c2.76-0.21,7.56-1.04,12.3-4.14
			C698.1,1110.72,698.76,1115.07,699.18,1117.66z"/>
		<path class="st17" d="M684.1,1066.67c0,0-8.39,11.83-13.46,28.46c-1.19,3.92-5.27,8.8-9.38,13.13c-3.99,4.21-8.03,7.9-9.52,9.72
			l-6.76-3.25c0,0,2.38-6.82,5.89-13c1.3-2.3,2.76-4.51,4.32-6.25c2.15-2.41,1.44-32.84,3.59-34.85
			C660.91,1058.62,684.1,1066.67,684.1,1066.67z"/>
		<path class="st12" d="M688.09,1059.63l-12.38,25.16c-0.07,0.01-9.23,0.29-15.73-3.36c-3.73-2.09-5.4-4.55-5.4-4.55l3.86-17.25
			H688.09z"/>
		<path class="st24" d="M665.92,975.61c0,0-4.21-8.86-14.38-3.59c-10.17,5.27-0.27,25.37-5.61,30.33
			c-5.34,4.96,1.94,8.21,0.85,11.77c-1.08,3.56,2.01,7.61,9.13,7.13c7.12-0.48,14.62-0.09,17.83-6.32
			c3.22-6.23,2.49-19.93,1.24-21.86C673.74,991.15,665.92,975.61,665.92,975.61z"/>
		<path class="st17" d="M665.07,1012.4l0.03,0.02C665.08,1012.43,665.07,1012.4,665.07,1012.4z"/>
		<path class="st17" d="M682.41,1022.86l-17.3-10.44c0.1-0.04,0.45-0.56,1.74-4.3c0.55-1.59,0.84-2.98,0.99-4.08
			c0.01-0.11,0.03-0.22,0.04-0.32c0.18-1.6,0.05-2.52,0.05-2.52l3.79,1.37l7.01,2.54c-0.08,1.78,0.17,3.03,0.55,3.88
			c0.92,2.08,2.62,2.1,2.67,2.1L682.41,1022.86z"/>
		<path class="st25" d="M679.26,1009c-6.77,0.58-10.59-3.84-11.43-4.96c-0.13-0.16-0.19-0.25-0.19-0.25s0.08-0.02,0.23-0.07
			c0.55-0.16,2.05-0.61,3.84-1.14l7.01,2.54C678.64,1006.89,678.88,1008.14,679.26,1009z"/>
		<path class="st17" d="M679.6,1006.57c0,0-15.05,1.65-15.36-8.52c-0.31-10.17-2.53-14.83,7.88-15.74
			c10.41-0.91,12.87,2.84,13.48,6.29C687.53,999.35,683.84,1006.11,679.6,1006.57z"/>
		<path class="st26" d="M651.54,972.02c-0.21-0.47-0.36-0.78-0.36-0.78C651.33,971.46,651.45,971.73,651.54,972.02z"/>
		<path class="st17" d="M684.44,1012.12c0,0,14.43-11.09,15.97-14.76c1.54-3.67,8.16-17.11,9.88-18.48c0,0,3.59-0.46,4.1,2.02
			c0.51,2.48-3.42,17.22-6.15,21.67c-2.74,4.45-15.86,19.53-20.17,21.72L684.44,1012.12z"/>
		<path class="st17" d="M719.51,972.09c-0.24,1.29-0.76,2.66-1.38,3.38c-0.81,0.95-2.09,2.86-2.9,4.09
			c-0.52,0.76-0.86,1.33-0.86,1.33l-4.09-2c0,0-0.1-6.95,2.62-8.42c0.1-0.05,0.14-0.09,0.24-0.09c1.14-0.62,2.24-1.05,3.19-1.33
			c1.28-0.33,2.28-0.38,2.85-0.05C719.7,969.28,719.79,970.66,719.51,972.09z"/>
		<path class="st24" d="M672.93,987.28c-5.32-1.35-3.29,8.09-4.63,7.44c-1.51-0.72-4.09-0.71-3.68,1.11c0.41,1.82,1,2.47,1.3,3.6
			c0.31,1.13,0,3.38-1.24,2.93c-1.24-0.45-12.75-13.6-4.62-23.84c8.13-10.24,32.38-3.93,24.74,6.78
			C683.46,987.17,676.73,988.24,672.93,987.28z"/>
		<path class="st20" d="M692.26,1063.34c0,0-4.52,2.4-11.64,2.29c-4.53-0.07-14.17-2.04-20.36-4.28c-3.53-1.27-5.94-2.63-5.65-3.77
			c0.42-1.64,3.44-14.26,6.23-25.93c2.55-10.67,4.92-20.56,4.92-20.56s7.05,5.01,11.15,3.24c4.11-1.77,3.58-3.76,3.58-3.76
			s2.69-1.09,3.95-0.68c1.26,0.4,4.84-1.63,4.84-1.63s3.95,3.05,4.1,9.61c0.02,0.97-0.03,2.02-0.21,3.15l-2.85,3.29
			C690.32,1024.3,696.37,1043.37,692.26,1063.34z"/>
		<path class="st27" d="M710.17,1125.81h-19.82c0,0-0.38-3.22,0.08-5.98c0.05-0.34,0.23-0.64,0.49-0.9
			c1.16,0.39,2.86,0.67,4.76-0.01c1.55-0.56,2.7-1.41,3.51-2.18c0.2,0.2,4.3,4.1,6.19,4.1
			C707.32,1120.84,710.28,1121.77,710.17,1125.81z"/>
		<path class="st3" d="M661.25,1108.26c-3.99,4.21-8.03,7.9-9.52,9.72l-6.76-3.25c0,0,2.38-6.82,5.89-13
			C652.07,1103.61,655.24,1107.48,661.25,1108.26z"/>
		<path class="st27" d="M653.19,1116.23c0,0-0.25,4.3,1.19,4.87c1.43,0.57,4.11,1.98,4.11,4.71h-9.93c0,0-6.85-3.37-7.76-4.8
			c-0.91-1.43,4.56-7.54,4.56-7.54S648.73,1117.2,653.19,1116.23z"/>
		<path class="st17" d="M669.62,1046.31c0,0,4.35-0.81,6.05,0.3c1.7,1.11,2.2,2.85,0.98,3.57c-3.84,2.23-7.72-0.24-7.72-0.24
			L669.62,1046.31z"/>
		<path class="st17" d="M665.93,1012.46c0,0-13.39,2.84-18.67,23.65c-0.52,2.04,0.02,4.21,1.42,5.77c2.43,2.69,7.78,6.62,20.22,8.07
			c1.36,0.16,1.54-3.29,1.54-3.29c-0.14,0.28-8.45-5.38-11.99-8.41c-0.64-0.55-0.61-1.7-0.15-2.41c1.2-1.83,3.2-4.98,3.88-6.6
			C663.17,1026.87,669.67,1013.53,665.93,1012.46z"/>
		<path class="st20" d="M665.76,1011.1c0,0-7.87,0.56-14.29,9.12c0,0,2.17,7.87,12.37,9.97
			C663.84,1030.19,670.12,1016.01,665.76,1011.1z"/>
	</g>
	<path class="st24" d="M773.07,807.79c0,0-14.04-1.71-21.1,11.36c-7.06,13.07-6.49,32-13.34,40.93c-6.85,8.93,1.14,17.4,1.14,17.4
		l53.34,1.8c0,0,3.71-9.98,0-21.96C789.4,845.34,807.51,809.61,773.07,807.79z"/>
	<path class="st18" d="M818.23,966.4c-0.55,2.08-2.34,6.79-3.72,6.79c-1.13,0-1.54-5.77-2.99-6.99c-2.11-1.78-3.83-5.5-4.11-6.4
		c-0.56-1.86-1.1-2.25-1.1-2.25l0,0h-0.01c0,0-16.86-30.83-18.18-38.73c-0.43-2.57-1.54-7.72-2.84-13.5
		c-1.41-6.28-3.04-13.29-4.28-18.54c5.38-1.05,11.34-1.42,16.19-1.51c0.99,6.39,1.87,12.92,2.64,18.59
		c1.13,8.44,1.99,14.98,2.53,16.39c1.47,3.85,5.51,24.6,9.32,35.38c0.44,1.06,1.67,3.82,3.03,4.76
		C816.41,961.56,818.77,964.32,818.23,966.4z"/>
	<path class="st17" d="M787.66,935.97c-9.32-29.78,9.44-29.39,8.47-44.29c-0.97-14.9-12.51-30.92-12.51-30.92s-0.41-0.04-1.13-0.11
		c-0.39-0.04-0.74-0.29-0.87-0.67c-0.43-1.18-0.56-3.75-0.55-6.44c0.01-4.1,0.32-8.46,0.32-8.46l-13.84-2.74l-0.82-0.16
		c0.02,6.96-1.29,12.19-2.72,15.11c-0.68,1.39-2,2.34-3.53,2.56c-2.97,0.42-8.2,1.31-11.73,2.78c-1.71,0.71-3.02,1.57-3.48,2.57
		c-3.8,8.35-7.59,29.44-10.26,44.48c-1.49,8.38-2.62,14.89-3.21,16.27c-1.65,3.85-6.69,25.01-11,35.46l5.5,1.65
		c0,0,18.14-30.1,19.79-37.93c0.54-2.55,1.86-7.65,3.4-13.37c0.23-0.87,0.47-1.74,0.71-2.63c2.72,7.37,4.11,10.78,4.03,13.97
		c-0.11,4.53-3.18,8.61-9.6,23.01C741.09,954.07,797.17,966.38,787.66,935.97z"/>
	<path class="st18" d="M781.39,845.09c0,0-0.31,4.35-0.32,8.46c-7.74-0.22-11.83-7.28-13.51-11.2L781.39,845.09z"/>
	<path class="st17" d="M783.98,848.97c0,0-18.32,0.3-18.33-11.11c-0.01-11.41-2.38-19.06,9.31-19.73c11.7-0.68,13.97,3.68,14.9,7.48
		C790.79,829.42,788.74,848.6,783.98,848.97z"/>
	<path class="st17" d="M809.54,1114.9l-5.88,1.45c0,0-9.24-12.66-16.93-29.93c-4.87-10.94-9.11-23.44-9.96-35.05
		c-0.39-5.26-0.08-10.33,1.17-15c0,0-1.64-11.05-3.89-25.79c-2.5-16.39-5.73-37.34-8.27-52.74l1.53-0.46l25.01-14.62
		c0,0,11.49,26.2,8.56,65.58c-0.6,8.08,1.12,20.58-0.41,29.77c-2.61,15.7-1.53,31.48,0.63,44.62
		C804.2,1101.52,809.54,1114.9,809.54,1114.9z"/>
	<path class="st28" d="M749.12,906.16c3.43,9.48,5.2,13.35,5.12,16.93c10.94-16.94,30.71-19.5,30.71-19.5l-37.53-4.29
		C747.76,901.63,748.32,903.92,749.12,906.16z"/>
	<path class="st24" d="M789.31,819.27c-2.83-3.43-4.96-2.68-6.16-1.65c-9.82-5.45-16.47,2.64-16.47,2.64
		c-1.23,8.19-7.13,12.88-7.13,12.88s3.26,1.73,11.04,0.08c9.23-1.96,11.77-12.36,12.13-13.71c1.12,1,3.32,3.19,3.99,5.32
		c0.91,2.91,1.32,8.89,3.07,8.68C789.78,833.52,793.56,824.42,789.31,819.27z"/>
	<path class="st17" d="M721.2,960.49c0,0-1.67,3.94-3.41,5.04c-1.74,1.1-4.21,3.76-3.76,5.86c0.46,2.11,0.92,5.41,3.12,5.41
		c2.2,0,7.33-9.71,7.97-11.54c0.64-1.83,1.19-2.2,1.19-2.2L721.2,960.49z"/>
	<path class="st3" d="M807.51,1047.09c-22.12,12.64-80.35-7.49-80.29-8.65c0.31-6.19,5.9-43.42,12.48-78.96
		c4.04-21.85,14.79-30.02,13.07-31.39c-0.02-0.02-0.03-0.03-0.03-0.03c-6.63-4.71-3.76-12.78-3.33-15.68
		c-2.04,0.55-8.61,1.79-16.13-2.36c3.1-15.14,7.51-36.38,11.94-44.79c0.21-0.41,0.58-0.79,1.09-1.15c-0.03-0.03-0.04-0.05-0.04-0.05
		c4.14-3.02,12.6-3.94,12.6-3.94s4.56,11.17,5.96,12.91c9.03,11.28,25.24,6.19,23.03-0.84c-0.8-2.56-4.89-10.61-5.39-11.51
		c-0.03-0.04,1.15,0.11,1.15,0.11c2.72,0.36,4.65,0.63,6.03,0.87c2.72,0.46,3.4,0.79,4.07,1.31c2.39,2.39,5.49,8.32,5.74,18.9
		c0.09,3.94,4.19,47.4-9.07,46.64c-0.3-0.02-0.04,0.69,0.53,2.04c1.87,4.3,7.19,15.1,8.73,28.96
		C804.67,1004.54,807.51,1047.09,807.51,1047.09z"/>
	<path class="st3" d="M778.71,842.23c0,0,0.35,1.41,3.85,1.15c0,0,2.94-0.22,2.83-1.76C785.39,841.62,782.53,840.55,778.71,842.23z"
		/>
	<path class="st17" d="M725.12,965.26c0,0-0.6,4.43-1.77,5.46c-1.17,1.02-1.34,2.86-2.54,1.87
		C719.61,971.6,725.12,965.26,725.12,965.26z"/>
	<path class="st17" d="M798.85,1122.54c0.01,3.32,4.67,3.69,10.01,3.46c5.34-0.23,3.83,1,11.24,1.64
		c7.41,0.63,10.14-1.63,10.57-2.67c0.39-0.92-3.13-1.96-6.88-3.17c-0.47-0.15-0.95-0.31-1.42-0.46c-4.23-1.4-6.85-4.83-10.33-7.91
		c-3.3-2.92-7.11-12.89-7.11-12.89l-10.09-1.18c0,0,3.64,8.96,4.98,12.8c0.78,2.26,0.19,4.93-0.37,6.97
		C799.15,1120.24,798.85,1121.37,798.85,1122.54z"/>
	<path class="st23" d="M808.86,1126c5.34-0.23,3.83,1,11.24,1.64c7.41,0.63,10.14-1.63,10.57-2.67c0.39-0.92-3.13-1.96-6.88-3.17
		l-0.05,0.07c0,0-4.96,2.22-11.02,1.17c-4.94-0.86-9.87-3.3-13.27-3.92c-0.3,1.11-0.6,2.24-0.6,3.42
		C798.86,1125.87,803.52,1126.24,808.86,1126z"/>
	<path class="st20" d="M807.51,1047.09c-22.12,12.64-80.35-7.49-80.29-8.65c0.31-6.19,5.9-43.42,12.48-78.96
		c4.04-21.85,14.79-30.02,13.07-31.39c0.41,0.33,6.65,5.37,18.09,4.68c10.24-0.62,18.13-1.9,20.07-2.24
		c1.87,4.3,7.19,15.1,8.73,28.96C804.67,1004.54,807.51,1047.09,807.51,1047.09z"/>
	<path class="st19" d="M752.75,928.06c0,0,18.11,7.56,37.65,0.43l0.99,3.06c0,0-20.1,6.98-39.42-0.96L752.75,928.06z"/>
</g>
<path class="st9" d="M2325.08,1131.9H36.47c-1.6,0-2.9-1.3-2.9-2.9v-0.29c0-1.6,1.3-2.9,2.9-2.9h2288.62c1.59,0,2.9,1.3,2.9,2.9
	v0.29C2327.99,1130.6,2326.68,1131.9,2325.08,1131.9z"/>
<g>
	<path class="st9" d="M1551.1,1127.98h-19.62c0.15-1.03,0.65-4.16,1.57-7.04c0.32-1,0.69-1.98,1.11-2.83
		c1.91-3.81,14.03-1.39,14.03-1.39s1.13,0.96,2,4.65C1550.58,1123,1550.92,1125.15,1551.1,1127.98z"/>
	<path class="st29" d="M1515.09,828.33c0,0-15.63,2.75-19.17,11.97c-3.53,9.23-23.5,158.27-23.5,158.27s9.89,7.83,31.11,5.02
		S1515.09,828.33,1515.09,828.33z"/>
	<path class="st9" d="M1491.82,1121.79c-0.05,2.67-0.39,5.19-1.36,6.19h-38.8c0.49-1.4,1.89-3.51,5.87-4.16
		c4.53-0.73,11.58-2.91,15.7-7.27c1.47-1.55,2.56-3.37,3.04-5.51c1.83-8.13,15.09,2.49,15.09,2.49S1491.91,1117.82,1491.82,1121.79z
		"/>
	<path class="st9" d="M1475.11,1117.84c4.34,1.38,12.62,5.61,17.89,3.62c3.4-1.28,22.42-56.3,23.65-80.36
		c0.09-1.75,0.44-4.19,0.97-7.17c1.13-6.21,3.1-14.74,5.37-24.16c6.09-25.23,14.32-56.8,14.14-66.88
		c-0.28-15.66-46.67-3.28-46.67-3.28s-3.19,12.84-3.83,31.44c-1.26,36.91-4.72,99.27-14.14,142.57
		C1472.1,1115.45,1473.31,1117.27,1475.11,1117.84z"/>
	<path class="st6" d="M1507.31,942.94l24.52,177.74c0,0,10.77,2.6,19.15,0.52c0,0,7.18-94.53,6.58-117.38
		c-0.6-22.85,5.15-61.15-1.31-65.38C1549.78,934.21,1507.31,942.94,1507.31,942.94z"/>
	<path class="st3" d="M1559.35,836.48c0,0-25.77-16.66-44.26-8.14c-2.95,1.36-6.31,5.15-8.71,7.8
		c-6.68,7.36-19.74,124.32-19.74,124.32s37.06,12.55,72.71-4.26V836.48z"/>
	<path class="st29" d="M1513.62,827.91c0,0-26.09,10.69-29.63,18.91c-3.53,8.21-15.02,58.67-15.02,64.58c0,5.92,20,1.32,23.22-8.22
		c2.67-7.92,11.69-32.27,16.44-47.66L1513.62,827.91z"/>
	<g>
		<path class="st17" d="M1519.04,836.06c5.7,1.12,14.06-0.07,20.19-4.11c-2.77-6.61-3.9-11.82-4.3-15.2
			c-0.02-0.18-0.04-0.35-0.06-0.52c-0.18-1.75-0.16-2.94-0.07-3.48h-14.73c0,0-4.03,1.84-4.03,3.11c0,0.68-0.01,1.33-0.02,1.95
			c-0.03,1.69-0.1,3.17-0.19,4.44c-0.28,4.13-0.75,6.08-0.75,6.08S1513.29,834.93,1519.04,836.06z"/>
		<path class="st30" d="M1515.84,822.25c11.16,2.16,17.63-3.94,19.08-5.5c0.21-0.22,0.31-0.36,0.31-0.36
			c-0.12-0.06-0.24-0.11-0.37-0.17c-4.15-1.68-13.58-0.34-18.84,1.59C1516,819.51,1515.93,820.98,1515.84,822.25z"/>
		<path class="st17" d="M1538.57,810.33c-1.99,10.73-15.84,10.38-21.82,9.7c-1.68-0.19-2.74-0.4-2.74-0.4
			c-1.9-0.51-2.96-3.5-3.45-7.41c-0.98-7.75,0.26-19.13,1.57-22.04c1.97-4.38,5.68-9.12,19.63-5.7
			C1545.69,787.9,1541.13,796.58,1538.57,810.33z"/>
		<path class="st9" d="M1511.61,784.19c1.91-2.64,5.95-5.86,9.62-7.85c7.88-4.26,17.97,0.13,18.01,0.15
			c11.39,5.01,14.36,13.72,8.32,27.29c-6.38,14.35-12.46,12.74-12.46,12.74s1.29-0.8,1.17-5.28c-0.01-0.25-0.02-0.47-0.03-0.65
			c-0.06-0.92,0.26-1.84,0.95-2.45c1.41-1.26,2.1-5.08,0.92-6.14c-1.43-1.28-3.44,0.27-4.08,1.47c-0.56,0.85-1.56,1.14-2.5,0.55
			c-3.55-2.24-1.24-6.72-4.63-9.46c-3.39-2.74-10.26-0.44-15.34-2.63C1504.91,789.46,1510.17,786.18,1511.61,784.19z"/>
	</g>
	<path class="st31" d="M1510.02,1009.52c2.24,0.58,4.46,1.05,6.67,1.42c1.95,0.33,3.9,0.58,5.84,0.75
		c11.03,0.96,22.11-0.59,35.06-4.31c2.92-0.84,5.93-1.78,9.06-2.84c0.33-0.11-0.85-34.35-2.22-69.67
		c-0.14-3.65-0.28-7.31-0.42-10.94c-0.06-1.54-0.12-3.07-0.18-4.6c-1.24-31.24-2.47-59.45-2.73-60.97
		c-0.59-3.44-1.15-6.37-1.75-8.91c-1.76-7.4-3.96-11.46-8.73-14.95c-0.46-0.35-4.28-2.28-7.65-3.96c-2.79-1.39-5.27-2.6-5.27-2.6
		c0,0,0,0,0,0c-1.11,0.54-2.44,3.09-3.84,6.66c-2.57,6.58-5.33,16.67-7.26,24.2c-0.01,0.02-0.01,0.03-0.01,0.04c0,0,0,0,0,0
		c-1.24,4.86-2.13,8.65-2.38,9.74c-0.43,1.83-1,5.39-1.67,10.2c-0.91,6.55-1.99,15.45-3.14,25.54c-0.12,1.04-0.24,2.09-0.35,3.15
		c-0.14,1.21-0.27,2.44-0.41,3.67c-0.04,0.4-0.09,0.79-0.13,1.19c-0.44,4-0.89,8.12-1.33,12.32c-0.37,3.47-5.63,5.97-5.99,9.5
		c-0.21,2.07-0.65,21.17-1.21,27.27C1509.57,965.78,1509.86,1007.47,1510.02,1009.52z"/>
	<path class="st29" d="M1548.06,870.95c0.02,0.07,0.89,31.59-22.81,35.42c-23.71,3.83-7.96,4.84-7.96,4.84s44.61-1.9,45.34-3.07
		C1563.36,906.96,1548.06,870.95,1548.06,870.95z"/>
	<path class="st29" d="M1528.03,919.9c0,0,0.44,0.32,1.3,0.87c0.01,0,0.03,0.02,0.04,0.03c3.62,2.31,14.35,8.6,29.98,12.82
		c1.64,0.44,3.34,0.87,5.08,1.25c-0.14-3.65-0.28-7.31-0.42-10.94c2.06-0.16,4.04-0.42,5.88-0.81c-0.06-0.48-0.13-0.96-0.19-1.44
		c-1.99-0.82-3.96-1.6-5.87-2.35c-1.55-0.61-3.05-1.18-4.48-1.72c-6.42-2.44-11.18-4.09-11.18-4.09l-19,6.02L1528.03,919.9z"/>
	<path class="st31" d="M1523,919.37c0,0,2.44,0.61,6.33,1.39c0.01,0,0.03,0,0.04,0.01c7.17,1.44,19.22,3.46,29.98,3.35
		c1.59-0.02,3.15-0.08,4.66-0.2c2.06-0.16,4.04-0.42,5.88-0.81c3.93-0.83,7.23-2.24,9.39-4.43c16.01-16.31-8.74-74.84-13.94-80.54
		c-6.08-6.65-17.16-8.98-23.29-9.78c-0.26-0.03-0.5-0.06-0.74-0.09c-2.15-0.26-3.53-0.31-3.61-0.31c0,0,0,0,0,0s0.48,1.54,1.28,4.16
		c0.31,1.01,0.67,2.19,1.07,3.5c3.76,12.32,11.02,36.52,14.22,50.17c1.17,5,1.8,8.58,1.51,9.65c-1.25,4.66-14.19,7.06-22.38,8.12
		c-3.42,0.44-6.01,0.65-6.59,0.7c-0.04,0-0.08,0-0.12,0.01l-0.47,1.94l-1.13,4.66l-1.12,4.58L1523,919.37z"/>
	<polygon class="st20" points="1478.34,947.43 1533.33,945.11 1522.17,876.58 1467.18,878.9 	"/>
	<path class="st17" d="M1526.68,904.25c0,0-10.7-0.75-11.24,1.75c-1.25,5.82,9.2,10.59,12.59,10.27
		C1531.41,915.94,1529.14,903.86,1526.68,904.25z"/>
	<path class="st17" d="M1470.19,892.81c0,0,10.24-3.2,11.34-0.9c2.56,5.37-6.5,12.43-9.87,12.9
		C1468.28,905.28,1467.7,893.01,1470.19,892.81z"/>
	<path class="st29" d="M1536.58,824.51c0,0,5.08,0.88,7.34,4.12c0,0-17.41,30.49-17.34,30.22
		C1526.66,858.58,1532.27,828.26,1536.58,824.51z"/>
	<path class="st29" d="M1515.61,824.92c-1.48,0.56-4.33,3.47-4.97,5.08l-2,25.52c0,0,4.27-18.73,6.45-27.19
		C1515.64,826.18,1515.54,825.53,1515.61,824.92z"/>
	<path class="st32" d="M1503.94,877.35c0,0-0.44-1.9-2.94-1.68c-2.5,0.22-16.57,0.91-16.57,0.91s-2.71-0.04-2.46,1.69
		L1503.94,877.35z"/>
</g>
</svg>
