<?xml version="1.0" encoding="utf-8"?>
<!-- Generator: Adobe Illustrator 23.0.3, SVG Export Plug-In . SVG Version: 6.00 Build 0)  -->
<svg version="1.1" xmlns="http://www.w3.org/2000/svg" xmlns:xlink="http://www.w3.org/1999/xlink" x="0px" y="0px"
	 viewBox="0 0 2617.67 2569.64" style="enable-background:new 0 0 2617.67 2569.64;" xml:space="preserve">
<style type="text/css">
	.st0{fill:#CD541F;}
	.st1{fill:#FFFFFF;}
</style>
<g id="Camada_1">
</g>
<g id="Camada_2">
	<circle class="st0" cx="1309.05" cy="1285.06" r="1243.26"/>
	<path class="st1" d="M983.95,1665.17c54.52-25.25,111.75-43.23,170.87-55.78c6.25-1.34,11.82-2.45,16.93-3.4
		c35.32-6.74,67.64-11.1,107.86-13.12v-279.74H933.2C935.63,1438.81,953.14,1559.01,983.95,1665.17z"/>
	<path class="st1" d="M1663.74,845.3c7.01-3.5,13.99-7.08,20.91-10.81c4.53-2.42,9.24-5.03,14.47-8
		c41.65-23.61,81.04-51.26,117.59-82.31c-87.38-82.21-191.29-141.26-305-173.45c35.84,37.93,68.95,86.23,98.31,144.18
		C1630.39,755.15,1648.33,798.85,1663.74,845.3z"/>
	<path class="st1" d="M1216.67,548.35c-63.84,32.8-122.76,99.62-171.23,195.99c-16.79,33.39-31.75,69.42-44.96,107.47
		c52.28,24.85,107.12,43.59,163.76,55.86c5.17,1.13,10.44,2.21,16.07,3.31c32.62,6.33,64.1,10.47,99.29,12.47V543.23
		c-5.03,0.08-3.84,0.11-5.68,0.21C1254.8,544.31,1235.64,545.99,1216.67,548.35z"/>
	<path class="st1" d="M1164.24,1662.42c-56.65,12.27-111.49,31.01-163.77,55.87c13.21,38.05,28.18,74.08,44.97,107.47
		c48.48,96.38,107.41,163.21,171.26,196c18.94,2.35,38.07,4.04,57.11,4.91c1.89,0.09,0.77,0.13,5.8,0.21v-380.23
		c-35.19,2.01-66.68,6.15-99.31,12.48C1174.71,1660.21,1169.41,1661.29,1164.24,1662.42z"/>
	<path class="st1" d="M1154.76,960.72c-59.1-12.54-116.29-31.59-170.82-56.84c-31.05,107-48.55,228.28-50.77,353.96h346.44V977.23
		c-40.22-2.02-72.56-6.37-107.94-13.12C1166.61,963.16,1161.01,962.06,1154.76,960.72z"/>
	<path class="st1" d="M942.01,882.97c-9.29-4.98-18.49-10.17-27.59-15.52c-4.8-2.8-9.71-5.74-14.95-8.98
		c-43.06-26.55-83.82-57.4-121.63-91.88c-129.97,132.94-204.36,305.24-211.04,491.24h320.98
		C890.03,1122.1,908.74,996.41,942.01,882.97z"/>
	<path class="st1" d="M958.82,1739.68c-6.38,3.53-12.73,7.12-19.03,10.84c-4.74,2.81-9.48,5.68-14.19,8.6
		c-38.75,24.07-75.36,51.74-109.28,82.4c81.77,72.33,180.07,127.05,289.53,157.89c-35.87-37.94-68.99-86.26-98.36-144.24
		C989.3,1819.28,973.06,1780.6,958.82,1739.68z"/>
	<path class="st1" d="M914.47,1702.07c9.09-5.34,18.27-11.03,27.53-15.99c-33.02-112.59-51.7-237.21-54.17-372.95H566.94
		c7.55,191.03,85.46,362.17,210.15,489.87c38.02-34.75,79.03-64.91,122.4-91.65C904.62,1708.18,909.67,1704.87,914.47,1702.07z"/>
	<path class="st1" d="M939.81,819.59c6.28,3.72,12.63,7.3,19.01,10.83c14.24-40.92,30.48-79.6,48.67-115.5
		c29.33-57.89,62.39-106.15,98.19-144.06c-106.43,30.22-204.7,84.07-288.59,158.42c33.7,30.38,70.05,57.82,108.53,81.71
		C930.31,813.89,935.05,816.76,939.81,819.59z"/>
	<path class="st1" d="M1679.75,1671.21c9.66,4.68,19.23,10.64,28.71,15.71c5.48,2.94,10.47,5.68,15.25,8.38
		c46.72,26.3,90.94,56.4,131.92,91.72c115.77-125.88,187.68-287.88,194.93-473.88h-320.9
		C1727.3,1443.84,1710.12,1562.36,1679.75,1671.21z"/>
	<path class="st1" d="M1454.59,913.88c57.55-9.88,113.43-26.35,166.92-49.07c-14.25-42.9-30.74-83.29-49.44-120.47
		c-48.47-96.37-107.89-163.19-171.73-195.99c-18.96-2.36-38.6-4.04-57.64-4.92c-2.22-0.11-7.8-0.16-7.8-0.25v381.48
		c35.19-0.52,69.3-3.19,102.63-8.2C1443.3,915.62,1449.58,914.78,1454.59,913.88z"/>
	<path class="st1" d="M1684.69,1735.63c-6.93-3.74-13.92-7.32-20.95-10.83c-15.41,46.45-33.35,90.16-53.73,130.38
		c-29.37,57.98-62.49,106.3-98.36,144.24c116.86-32.93,221.01-93.05,305.9-172.78c-36.79-31.35-76.46-59.23-118.42-83.02
		C1693.89,1740.64,1689.18,1738.03,1684.69,1735.63z"/>
	<path class="st1" d="M1723.68,874.83c-4.81,2.72-9.8,5.47-15.21,8.37c-9.49,5.07-19.07,9.97-28.73,14.65
		c30.61,109.7,47.82,234.31,49.98,359.99h320.98c-6.42-175.95-75.4-344.43-195.81-475.16
		C1814.14,817.71,1770.16,848.66,1723.68,874.83z"/>
	<path class="st1" d="M1637.02,916.9c-56.01,23.24-114.77,40.05-174.99,50.2c-4.89,0.85-10.82,1.71-17.42,2.68
		c-35.67,5.27-74.51,8.05-109.7,8.57v279.49h349.43C1682.21,1137.19,1665.76,1020.63,1637.02,916.9z"/>
	<path class="st1" d="M1462.65,1602.48c60.15,10.14,118.63,26.44,174.63,49.67c28.5-102.89,44.68-218.37,47.02-339.02h-349.4v278.62
		c35.19,0.51,74.03,3.03,109.71,8.3C1451.22,1601.03,1457.68,1601.61,1462.65,1602.48z"/>
	<path class="st1" d="M1621.24,1705.29c-53.49-22.73-109.6-39.19-167.06-49.05c-5.18-0.92-10.93-1.77-16.58-2.6
		c-33.38-5.03-67.5-7.7-102.69-8.21v381.49c0-0.09,5.51-0.13,7.68-0.24c19.12-0.88,38.71-2.56,57.66-4.92
		c63.85-32.79,123.21-99.62,171.68-196C1590.63,1788.58,1606.99,1748.19,1621.24,1705.29z"/>
</g>
</svg>
