<?xml version="1.0" encoding="utf-8"?>
<!-- Generator: Adobe Illustrator 23.0.3, SVG Export Plug-In . SVG Version: 6.00 Build 0)  -->
<svg version="1.1" xmlns="http://www.w3.org/2000/svg" xmlns:xlink="http://www.w3.org/1999/xlink" x="0px" y="0px"
	 viewBox="0 0 2617.67 2569.64" style="enable-background:new 0 0 2617.67 2569.64;" xml:space="preserve">
<style type="text/css">
	.st0{fill:#E09B26;}
	.st1{fill:#FFFFFF;}
</style>
<g id="Camada_1">
</g>
<g id="Camada_2">
	<g>
		<circle class="st0" cx="1348.33" cy="1276.32" r="1240"/>
		<path class="st1" d="M2041.51,1320c0,380.42-308.39,688.83-688.82,688.83c-380.43,0-688.83-308.41-688.83-688.83
			c0-380.43,308.39-688.83,688.83-688.83C1733.12,631.18,2041.51,939.58,2041.51,1320z"/>
		
			<ellipse transform="matrix(0.7071 -0.7071 0.7071 0.7071 -537.1912 1343.1135)" class="st0" cx="1352.69" cy="1320" rx="483.98" ry="483.98"/>
		
			<ellipse transform="matrix(0.0792 -0.9969 0.9969 0.0792 -70.3571 2563.8337)" class="st1" cx="1352.69" cy="1320" rx="341.65" ry="341.64"/>
		<path class="st0" d="M1515.64,1320c0,90-72.96,162.95-162.95,162.95c-90,0-162.96-72.96-162.96-162.95
			c0-90,72.95-162.95,162.96-162.95C1442.68,1157.05,1515.64,1230.01,1515.64,1320z"/>
		<path class="st1" d="M2409.81,919.78l-88.43-60.87c2.6-10.74,1.55-22.42-3.84-33.05c-4.06-8-10.08-14.33-17.14-18.81l10.42-109.64
			c1.44-15.02-8.64-22.16-22.33-15.92l-230.9,105.33c-13.71,6.26-27.29,23.49-30.19,38.3l-22.34,115.01l-625.46,341.86
			c-23.69,12.02-46.92,13.88-34.89,37.6c12.03,23.71,27.25,6.05,50.95-5.97l637.43-299.38l88.03,52.18
			c12.95,7.7,34.57,8.44,48.04,1.65l238.76-120.4C2421.37,940.88,2422.24,928.33,2409.81,919.78z"/>
	</g>
</g>
</svg>
