<?xml version="1.0" encoding="utf-8"?>
<!-- Generator: Adobe Illustrator 23.0.3, SVG Export Plug-In . SVG Version: 6.00 Build 0)  -->
<svg version="1.1" xmlns="http://www.w3.org/2000/svg" xmlns:xlink="http://www.w3.org/1999/xlink" x="0px" y="0px"
	 viewBox="0 0 2617.67 2569.64" style="enable-background:new 0 0 2617.67 2569.64;" xml:space="preserve">
<style type="text/css">
	.st0{fill:#733999;}
	.st1{fill:#FFFFFF;}
	.st2{fill:#733999;stroke:#FFFFFF;stroke-miterlimit:10;}
</style>
<g id="Camada_1">
</g>
<g id="Camada_2">
	<circle class="st0" cx="1311.11" cy="1280.57" r="1240.75"/>
	<path class="st1" d="M1500.21,2083.42h-495.52c-92.22,0-166.98-74.76-166.98-166.98V713.83c0-92.22,74.76-166.98,166.98-166.98
		h495.52c92.22,0,166.98,74.76,166.98,166.98v1202.61C1667.19,2008.66,1592.43,2083.42,1500.21,2083.42z"/>
	<rect x="891.52" y="775.55" class="st0" width="719.23" height="1073.6"/>
	<path class="st0" d="M1314.3,1998.28h-120.91c-18.48,0-33.47-14.98-33.47-33.47l0,0c0-18.48,14.98-33.47,33.47-33.47h120.91
		c18.48,0,33.47,14.98,33.47,33.47l0,0C1347.77,1983.29,1332.78,1998.28,1314.3,1998.28z"/>
	<path class="st0" d="M1314.3,693.36h-120.91c-18.48,0-33.47-14.98-33.47-33.47v0c0-18.48,14.98-33.47,33.47-33.47h120.91
		c18.48,0,33.47,14.98,33.47,33.47v0C1347.77,678.37,1332.78,693.36,1314.3,693.36z"/>
	<path class="st1" d="M1790.29,876.67c-277.26,0-518.16,134.85-512.35,295.4c1.86,51.4,79.27,143.05,79.27,143.05l-3.72,247.71
		l275.4-114.86c0,0,85.31,10.46,131.68,10.46c277.26,0,531.76-130.23,531.76-290.88C2292.32,1006.9,2067.55,876.67,1790.29,876.67"
		/>
	<path class="st2" d="M1338.1,1585.56l3.98-265.1c-16.97-20.69-77.37-97.73-79.18-147.85c-1.91-52.75,20.78-105.2,65.62-151.68
		c93.34-96.78,274.6-159.31,461.77-159.31c136.71,0,265.46,30.98,362.54,87.23c99.66,57.74,154.55,135.42,154.55,218.71
		c0,165.83-250.41,305.93-546.81,305.93c-41.55,0-111.94-8.01-129.54-10.1L1338.1,1585.56z M1790.29,891.72
		c-179.41,0-352.16,58.92-440.11,150.1c-39.03,40.46-58.81,85.31-57.2,129.7c1.37,37.85,55.13,109.48,75.73,133.89l3.63,4.31
		l-3.45,230.39l257.88-107.56l3.95,0.49c0.84,0.1,84.94,10.35,129.85,10.35c275.26,0,516.71-128.89,516.71-275.83
		C2277.27,1015.46,2058.81,891.72,1790.29,891.72z"/>
	<path class="st0" d="M1628.09,1292.11c4.76-6.06,13.05-7.95,18.56-4.23l24.95,16.88c5.5,3.73,6.12,11.65,1.37,17.71l-34.28,43.76
		c23.12,3.19,49.74-4.78,71.29-23.61c5.11-4.46,9.66-9.29,13.62-14.38c0.05-0.06,0.09-0.1,0.14-0.15c2.71-3.03,4.84-6.37,6.53-9.73
		c1.74-3.45,2.86-7.11,3.53-10.68l0,0c0.32-2.52,0.73-4.66,0.71-7c0.63-6.48,1.66-15.88,2.86-21.55c1.96-9.3,8.63-21.65,8.63-21.65
		l62.66-54.74l0.1,0.11l61.9-53.91c0,0,15.17-11.8,30.34-12.17c15.18-0.37,27.2,0.45,27.2,0.45l-0.01-0.01
		c7.38,0.62,15.3-1.19,22.48-5.19c4.28-2.39,8.15-5.42,11.63-9.3c0.01,0,0.01-0.01,0.01-0.01c29.23-27.06,38.53-66.3,23.76-94.34
		l-34.36,43.73c-4.76,6.05-13.07,7.93-18.57,4.2l-24.93-16.92c-5.49-3.73-6.1-11.66-1.34-17.71l34.34-43.7
		c-23.12-3.23-49.75,4.7-71.33,23.5c-5.11,4.45-9.67,9.28-13.64,14.36c-0.05,0.05-0.09,0.1-0.14,0.15
		c-2.71,3.02-4.85,6.36-6.54,9.72c-1.75,3.45-2.87,7.11-3.55,10.68l0,0c-0.32,2.52-0.74,4.66-0.72,6.99
		c-0.64,6.48-1.68,15.88-2.89,21.55c-1.98,9.3-8.66,21.64-8.66,21.64l-62.81,54.7l-0.1-0.11l-61.82,54c0,0-15.15,11.82-30.32,12.22
		c-15.18,0.39-27.2-0.41-27.2-0.41l0.01,0.01c-7.38-0.61-15.3,1.21-22.47,5.22c-4.28,2.39-8.14,5.43-11.62,9.32
		c-0.01,0-0.01,0.01-0.01,0.01c-29.19,27.1-38.42,66.36-23.61,94.38L1628.09,1292.11z"/>
	<path class="st0" d="M1655.9,971.21l3.86,3.42l32.11,28.9c9.36,8.36,12.27,19.67,10.01,29.28l144.84,164.22l-18.81,17.45
		l-145.02-164.42c-9.66,1.21-20.61-2.99-27.74-12.92l-23.82-36.35l-2.85-4.35L1655.9,971.21z"/>
	<path class="st0" d="M1839.97,1194.36l11.25-10.36c2.63-2.43,6.98-2.21,9.95,1.16l1.36,1.55c0.17,0.19,0.24,0.46,0.39,0.66
		c0.05,0.07,0.06,0.17,0.11,0.24c0.09,0.13,0.16,0.28,0.25,0.41c0.06,0.09,0.1,0.19,0.16,0.28c0.07,0.11,0.12,0.23,0.19,0.34
		c0.06,0.1,0.12,0.21,0.17,0.32c0.01,0.02,0.02,0.04,0.03,0.06c0.16,0.32,0.3,0.65,0.42,0.98c0.01,0.03,0.02,0.06,0.03,0.1
		c0.06,0.17,0.11,0.34,0.16,0.51v0c0.01,0.02,0.01,0.05,0.02,0.07c0.02,0.09,0.04,0.17,0.06,0.26l0.17,0.19
		c0.01,0.06,0.23,0.34,0.21,0.36l1.55-1.43c1.48-1.36,3.9-1.38,5.56,0.51l110.16,125.06c13.1,14.87,14.81,36.52,3.17,47.24
		l-13.61,12.53c-11.64,10.72-32.43,6.63-45.53-8.24l-110.16-125.06c-1.66-1.89-1.49-4.26-0.01-5.62l2.25-2.07l0.01-0.01
		c-0.05,0.05-0.42-0.27-0.55-0.33c-0.05-0.02-0.18-0.13-0.23-0.15c-0.14-0.06-0.31-0.16-0.45-0.23c-0.07-0.03-0.15-0.09-0.22-0.12
		c-0.17-0.09-0.34-0.19-0.5-0.29c-0.14-0.08-0.28-0.17-0.41-0.26c-0.08-0.06-0.17-0.12-0.25-0.18c-0.12-0.08-0.23-0.17-0.34-0.26
		c-0.08-0.06-0.15-0.12-0.22-0.18c-0.12-0.1-0.24-0.21-0.36-0.32c-0.06-0.06,0-0.23-0.05-0.28c-0.18-0.17-0.23-0.47-0.39-0.66
		l-1.36-1.55c-2.79-3.16-3.1-6.94-0.95-9.4l6.69-6.21l4.07-3.75l-0.01-0.02l17.14-15.9L1839.97,1194.36z"/>
	<path class="st1" d="M1964.79,1339.68c3.31,3.76,8.45,4.54,11.38,1.84c2.94-2.71,2.71-8.01-0.6-11.77l-100.39-113.97
		c-3.31-3.75-8.44-4.54-11.38-1.83c-2.94,2.71-2.71,8.01,0.59,11.76L1964.79,1339.68z"/>
	<path class="st1" d="M1940.51,1362.03c3.31,3.76,8.28,4.7,11.22,1.99c2.94-2.71,2.54-7.86-0.77-11.61l-100.39-113.97
		c-3.31-3.75-8.27-4.69-11.21-1.99c-2.94,2.71-2.54,7.86,0.76,11.61L1940.51,1362.03z"/>
</g>
</svg>
